<svg xmlns="http://www.w3.org/2000/svg" style="display: none;">
    <!-- Bluesky Icon -->
    <symbol id="icon-bluesky" viewBox="0 0 512 512">
        <path d="M111.8 62.2C170.2 105.9 233 194.7 256 242.4c23-47.6 85.8-136.4 144.2-180.2c42.1-31.6 110.3-56 110.3 21.8c0 15.5-8.9 130.5-14.1 149.2C478.2 298 412 314.6 353.1 304.5c102.9 17.5 129.1 75.5 72.5 133.5c-107.4 110.2-154.3-27.6-166.3-62.9l0 0c-1.7-4.9-2.6-7.8-3.3-7.8s-1.6 3-3.3 7.8l0 0c-12 35.3-59 173.1-166.3 62.9c-56.5-58-30.4-116 72.5-133.5C100 314.6 33.8 298 15.7 233.1C10.4 214.4 1.5 99.4 1.5 83.9c0-77.8 68.2-53.4 110.3-21.8z"/>
    </symbol>

    <!-- Discord Icon -->
    <symbol id="icon-discord" viewBox="0 0 640 512">
        <path d="M524.5 69.8a1.5 1.5 0 0 0 -.8-.7A485.1 485.1 0 0 0 404.1 32a1.8 1.8 0 0 0 -1.9 .9 337.5 337.5 0 0 0 -14.9 30.6 447.8 447.8 0 0 0 -134.4 0 309.5 309.5 0 0 0 -15.1-30.6 1.9 1.9 0 0 0 -1.9-.9A483.7 483.7 0 0 0 116.1 69.1a1.7 1.7 0 0 0 -.8 .7C39.1 183.7 18.2 294.7 28.4 404.4a2 2 0 0 0 .8 1.4A487.7 487.7 0 0 0 176 479.9a1.9 1.9 0 0 0 2.1-.7A348.2 348.2 0 0 0 208.1 430.4a1.9 1.9 0 0 0 -1-2.6 321.2 321.2 0 0 1 -45.9-21.9 1.9 1.9 0 0 1 -.2-3.1c3.1-2.3 6.2-4.7 9.1-7.1a1.8 1.8 0 0 1 1.9-.3c96.2 43.9 200.4 43.9 295.5 0a1.8 1.8 0 0 1 1.9 .2c2.9 2.4 6 4.9 9.1 7.2a1.9 1.9 0 0 1 -.2 3.1 301.4 301.4 0 0 1 -45.9 21.8 1.9 1.9 0 0 0 -1 2.6 391.1 391.1 0 0 0 30 48.8 1.9 1.9 0 0 0 2.1 .7A486 486 0 0 0 610.7 405.7a1.9 1.9 0 0 0 .8-1.4C623.7 277.6 590.9 167.5 524.5 69.8zM222.5 337.6c-29 0-52.8-26.6-52.8-59.2S193.1 219.1 222.5 219.1c29.7 0 53.3 26.8 52.8 59.2C275.3 311 251.9 337.6 222.5 337.6zm195.4 0c-29 0-52.8-26.6-52.8-59.2S388.4 219.1 417.9 219.1c29.7 0 53.3 26.8 52.8 59.2C470.7 311 447.5 337.6 417.9 337.6z"/>
    </symbol>

    <!-- House Icon -->
    <symbol id="icon-house" viewBox="0 0 576 512">
        <!--!Font Awesome Free 6.7.2 by @fontawesome - https://fontawesome.com License - https://fontawesome.com/license/free Copyright 2025 Fonticons, Inc.--><path d="M575.8 255.5c0 18-15 32.1-32 32.1l-32 0 .7 160.2c0 2.7-.2 5.4-.5 8.1l0 16.2c0 22.1-17.9 40-40 40l-16 0c-1.1 0-2.2 0-3.3-.1c-1.4 .1-2.8 .1-4.2 .1L416 512l-24 0c-22.1 0-40-17.9-40-40l0-24 0-64c0-17.7-14.3-32-32-32l-64 0c-17.7 0-32 14.3-32 32l0 64 0 24c0 22.1-17.9 40-40 40l-24 0-31.9 0c-1.5 0-3-.1-4.5-.2c-1.2 .1-2.4 .2-3.6 .2l-16 0c-22.1 0-40-17.9-40-40l0-112c0-.9 0-1.9 .1-2.8l0-69.7-32 0c-18 0-32-14-32-32.1c0-9 3-17 10-24L266.4 8c7-7 15-8 22-8s15 2 21 7L564.8 231.5c8 7 12 15 11 24z"/>
    </symbol>

    <!-- Hourglass Icon -->
    <symbol id="icon-hourglass" viewBox="0 0 384 512">
        <!--!Font Awesome Free 6.7.2 by @fontawesome - https://fontawesome.com License - https://fontawesome.com/license/free Copyright 2025 Fonticons, Inc.--><path d="M32 0C14.3 0 0 14.3 0 32S14.3 64 32 64l0 11c0 42.4 16.9 83.1 46.9 113.1L146.7 256 78.9 323.9C48.9 353.9 32 394.6 32 437l0 11c-17.7 0-32 14.3-32 32s14.3 32 32 32l32 0 256 0 32 0c17.7 0 32-14.3 32-32s-14.3-32-32-32l0-11c0-42.4-16.9-83.1-46.9-113.1L237.3 256l67.9-67.9c30-30 46.9-70.7 46.9-113.1l0-11c17.7 0 32-14.3 32-32s-14.3-32-32-32L320 0 64 0 32 0zM96 75l0-11 192 0 0 11c0 19-5.6 37.4-16 53L112 128c-10.3-15.6-16-34-16-53zm16 309c3.5-5.3 7.6-10.3 12.1-14.9L192 301.3l67.9 67.9c4.6 4.6 8.6 9.6 12.1 14.9L112 384z"/>
    </symbol>

    <!-- Dharma Icon -->
    <symbol id="icon-dharma" viewBox="0 0 512 512">
        <path d="M337.8 205.7l48.6-42.5c13.8 19.3 23.4 41.9 27.4 66.2l-64.4 4.3c-2.4-10.1-6.4-19.5-11.6-28zm140.1 19.5c-5.3-38.8-20.6-74.5-43.2-104.3l.8-.7C449 108.4 449.7 87.6 437 75s-33.4-12-45.2 1.5l-.7 .8c-29.8-22.6-65.5-37.9-104.3-43.2l.1-1.1c1.2-17.9-13-33-30.9-33s-32.1 15.2-30.9 33l.1 1.1c-38.8 5.3-74.5 20.6-104.3 43.2l-.7-.8C108.4 63 87.6 62.3 75 75s-12 33.4 1.5 45.2l.8 .7c-22.6 29.8-37.9 65.5-43.2 104.3l-1.1-.1c-17.9-1.2-33 13-33 30.9s15.2 32.1 33 30.9l1.1-.1c5.3 38.8 20.6 74.5 43.2 104.3l-.8 .7C63 403.6 62.3 424.4 75 437s33.4 12 45.2-1.5l.7-.8c29.8 22.6 65.5 37.9 104.3 43.2l-.1 1.1c-1.2 17.9 13 33 30.9 33s32.1-15.2 30.9-33l-.1-1.1c38.8-5.3 74.5-20.6 104.3-43.2l.7 .8c11.8 13.5 32.5 14.2 45.2 1.5s12-33.4-1.5-45.2l-.8-.7c22.6-29.8 37.9-65.5 43.2-104.3l1.1 .1c17.9 1.2 33-13 33-30.9s-15.2-32.1-33-30.9l-1.1 .1zM163.2 125.6c19.3-13.8 41.9-23.4 66.2-27.5l4.3 64.4c-10 2.4-19.5 6.4-28 11.6l-42.5-48.6zm-65 103.8c4.1-24.4 13.7-46.9 27.5-66.2l48.6 42.5c-5.3 8.5-9.2 18-11.6 28l-64.4-4.3zm27.5 119.4c-13.8-19.3-23.4-41.9-27.5-66.2l64.4-4.3c2.4 10 6.4 19.5 11.6 28l-48.6 42.5zm103.8 65c-24.4-4.1-46.9-13.7-66.2-27.4l42.5-48.6c8.5 5.3 18 9.2 28 11.6l-4.3 64.4zm119.4-27.4c-19.3 13.8-41.9 23.4-66.2 27.4l-4.3-64.4c10-2.4 19.5-6.4 28-11.6l42.5 48.6zm65-103.8c-4.1 24.4-13.7 46.9-27.4 66.2l-48.6-42.5c5.3-8.5 9.2-18 11.6-28l64.4 4.3zm-65-156.9l-42.5 48.6c-8.5-5.3-18-9.2-28-11.6l4.3-64.4c24.4 4.1 46.9 13.7 66.2 27.5zM256 224a32 32 0 1 1 0 64 32 32 0 1 1 0-64z"/>
    </symbol>

    <!-- GitHub Icon -->
    <symbol id="icon-github" viewBox="0 0 496 512">
        <path d="M165.9 397.4c0 2-2.3 3.6-5.2 3.6-3.3 .3-5.6-1.3-5.6-3.6 0-2 2.3-3.6 5.2-3.6 3-.3 5.6 1.3 5.6 3.6zm-31.1-4.5c-.7 2 1.3 4.3 4.3 4.9 2.6 1 5.6 0 6.2-2s-1.3-4.3-4.3-5.2c-2.6-.7-5.5 .3-6.2 2.3zm44.2-1.7c-2.9 .7-4.9 2.6-4.6 4.9 .3 2 2.9 3.3 5.9 2.6 2.9-.7 4.9-2.6 4.6-4.6-.3-1.9-3-3.2-5.9-2.9zM244.8 8C106.1 8 0 113.3 0 252c0 110.9 69.8 205.8 169.5 239.2 12.8 2.3 17.3-5.6 17.3-12.1 0-6.2-.3-40.4-.3-61.4 0 0-70 15-84.7-29.8 0 0-11.4-29.1-27.8-36.6 0 0-22.9-15.7 1.6-15.4 0 0 24.9 2 38.6 25.8 21.9 38.6 58.6 27.5 72.9 20.9 2.3-16 8.8-27.1 16-33.7-55.9-6.2-112.3-14.3-112.3-110.5 0-27.5 7.6-41.3 23.6-58.9-2.6-6.5-11.1-33.3 2.6-67.9 20.9-6.5 69 27 69 27 20-5.6 41.5-8.5 62.8-8.5s42.8 2.9 62.8 8.5c0 0 48.1-33.6 69-27 13.7 34.7 5.2 61.4 2.6 67.9 16 17.7 25.8 31.5 25.8 58.9 0 96.5-58.9 104.2-114.8 110.5 9.2 7.9 17 22.9 17 46.4 0 33.7-.3 75.4-.3 83.6 0 6.5 4.6 14.4 17.3 12.1C428.2 457.8 496 362.9 496 252 496 113.3 383.5 8 244.8 8z"/>
    </symbol>

    <!-- Arena Icon -->
    <symbol id="icon-arena" viewBox="0 0 640 640">
        <path d="M320,0C143.27,0,0,143.27,0,320s143.27,320,320,320,320-143.27,320-320S496.73,0,320,0ZM562.29,393.44c-1.72,1.58-4.35,2.18-6.37,3.13-2.87-.85-5.16-1.33-7.3-2.19-24.72-9.95-49.42-19.96-74.13-29.95-.79-.32-1.62-.55-2.43-.81-6.22-2.04-8.88-.74-10.16,5.54-1.11,5.4-1.75,10.91-2.51,16.38-1.66,12-3.3,24-4.89,36.01-1.42,10.75-2.69,21.52-4.16,32.26-.31,2.29-.86,4.66-1.84,6.73-1.69,3.57-7.14,6.21-10.74,5.62-4.05-.66-8.41-4.97-9.21-9.66-1.07-6.28-1.81-12.62-2.68-18.94-2.04-14.74-4.09-29.47-6.09-44.21-1-7.37-2.02-14.75-2.83-22.14-.85-7.78-3.89-10.09-10.91-7.34-14.49,5.67-28.89,11.6-43.32,17.43-11.47,4.63-22.78,9.72-34.45,13.73-6.47,2.22-13.48,1.62-20.06-1.04-24.7-10.01-49.42-19.98-74.13-29.96-7.53-3.04-10.95-.72-11.94,7.55-1.42,11.81-3.18,23.59-4.72,35.38-1.05,8.01-1.91,16.05-2.98,24.06-1.12,8.42-2.2,16.86-3.71,25.22-.42,2.32-1.91,4.76-3.6,6.47-5.45,5.53-12.71,4.28-16.38-2.65-.88-1.67-1.68-3.52-1.92-5.37-1.86-14.33-3.55-28.69-5.35-43.03-1.69-13.5-3.45-26.99-5.21-40.47-.14-1.05-.47-2.08-.79-3.09-1.69-5.33-4.41-6.7-9.72-4.62-8.93,3.5-17.82,7.13-26.71,10.74-16.4,6.65-32.78,13.35-49.2,19.95-2.15.86-4.48,1.41-6.78,1.75-4.11.6-7.69-.46-9.86-4.32-1.77-3.15-.91-9.05,2.01-11.84,3.69-3.53,7.56-6.9,11.57-10.06,18.75-14.74,37.58-29.38,56.37-44.06.67-.52,1.31-1.1,1.9-1.72,3.54-3.71,3.8-6.28.14-9.92-3.61-3.59-7.63-6.81-11.64-9.97-18.88-14.92-37.82-29.76-56.73-44.64-.67-.52-1.31-1.1-1.86-1.75-2.77-3.31-3.42-9.1-1.37-11.98,1.97-2.78,6.98-4.34,11.02-2.87,9.02,3.28,17.97,6.73,26.87,10.31,16.62,6.68,33.18,13.5,49.78,20.23,1.97.8,4.02,1.44,6.06,2.07,5.12,1.58,8.08-.17,9.07-5.56.96-5.23,1.76-10.49,2.51-15.75,2.11-14.73,4.18-29.46,6.21-44.2,1.02-7.37,1.85-14.77,2.9-22.14.6-4.19,1.05-8.45,4.65-11.55,3.97-3.43,8.22-3.26,11.78.69,3.07,3.4,3.44,7.75,4.06,11.92,2.18,14.72,4.2,29.46,6.23,44.2,1.42,10.32,2.75,20.65,4.18,30.98.32,2.32.72,4.64,1.33,6.89,1.3,4.82,3.83,6.32,8.56,4.59,7.81-2.86,15.5-6.03,23.21-9.12,17.81-7.14,35.62-14.28,53.42-21.46,8.29-3.35,16.29-3.41,24.78.12,24.21,10.08,48.63,19.67,72.97,29.44,1.38.56,2.78,1.12,4.23,1.47,3.58.87,6.45-.46,7.47-4.06,1.1-3.86,1.69-7.89,2.25-11.88,1.89-13.48,3.64-26.97,5.49-40.46,1.68-12.21,3.39-24.43,5.18-36.62.7-4.74,4.14-8.49,7.91-8.99,4.54-.6,8.09,1.76,10.2,6.9.48,1.17.86,2.42,1.04,3.67,2.14,14.72,4.28,29.45,6.34,44.18,1.82,13.06,3.54,26.13,5.3,39.19.11.84.1,1.72.32,2.54,1.28,4.86,5.02,6.8,9.73,4.92,17.23-6.86,34.45-13.77,51.67-20.68,9.1-3.65,18.2-7.34,27.3-10.98,1.19-.47,2.41-.87,3.65-1.18,4.49-1.14,8.88.6,11.05,4.32,1.82,3.13,1.32,7.23-1.86,10.51-2.66,2.74-5.71,5.12-8.71,7.49-19.4,15.29-38.84,30.53-58.25,45.81-1.17.92-2.31,1.91-3.31,3.01-3.31,3.64-2.98,8.04.89,11.08,18.43,14.46,36.89,28.86,55.33,43.31,4.36,3.41,9.04,6.54,12.88,10.46,5.53,5.65,5.79,10.59.99,15Z"/>
        <path d="M385.05,312.58c-11.7-9.21-23.3-18.54-34.97-27.79-7.5-5.94-15.01-11.88-22.59-17.73-4.99-3.85-10.52-4.16-16.28.46-13.61,10.91-27.42,21.57-41.1,32.39-5.67,4.49-11.28,9.06-16.81,13.73-3.13,2.64-3.95,6.27-2.07,9.04,1.06,1.56,2.52,2.92,4.02,4.08,18.5,14.33,37.05,28.59,55.53,42.94,2.67,2.07,5.45,3.28,8.81,2.97,3.4.3,6.16-.97,8.82-3.04,12.6-9.78,25.33-19.41,37.95-29.16,6.56-5.07,13.22-10.06,19.42-15.55,5.45-4.83,4.95-7.86-.74-12.35Z"/>
    </symbol>

    <!-- Moon Icon -->
    <symbol id="icon-moon" viewBox="0 0 384 512">
        <path d="M223.5 32C100 32 0 132.3 0 256S100 480 223.5 480c60.6 0 115.5-24.2 155.8-63.4c5-4.9 6.3-12.5 3.1-18.7s-10.1-9.7-17-8.5c-9.8 1.7-19.8 2.6-30.1 2.6c-96.9 0-175.5-78.8-175.5-176c0-65.8 36-123.1 89.3-153.3c6.1-3.5 9.2-10.5 7.7-17.3s-7.3-11.9-14.3-12.5c-6.3-.5-12.6-.8-19-.8z"/>
    </symbol>

    <!-- Sun Icon -->
    <symbol id="icon-sun" viewBox="0 0 512 512">
        <path d="M361.5 1.2c5 2.1 8.6 6.6 9.6 11.9L391 121l107.9 19.8c5.3 1 9.8 4.6 11.9 9.6s1.5 10.7-1.6 15.2L446.9 256l62.3 90.3c3.1 4.5 3.7 10.2 1.6 15.2s-6.6 8.6-11.9 9.6L391 391 371.1 498.9c-1 5.3-4.6 9.8-9.6 11.9s-10.7 1.5-15.2-1.6L256 446.9l-90.3 62.3c-4.5 3.1-10.2 3.7-15.2 1.6s-8.6-6.6-9.6-11.9L121 391 13.1 371.1c-5.3-1-9.8-4.6-11.9-9.6s-1.5-10.7 1.6-15.2L65.1 256 2.8 165.7c-3.1-4.5-3.7-10.2-1.6-15.2s6.6-8.6 11.9-9.6L121 121 140.9 13.1c1-5.3 4.6-9.8 9.6-11.9s10.7-1.5 15.2 1.6L256 65.1 346.3 2.8c4.5-3.1 10.2-3.7 15.2-1.6zM160 256a96 96 0 1 1 192 0 96 96 0 1 1 -192 0zm224 0a128 128 0 1 0 -256 0 128 128 0 1 0 256 0z"/>
    </symbol>

    <!-- Reply Icon -->
    <symbol id="icon-reply" viewBox="0 0 448 512">
        <path d="M205 34.8c11.5 5.1 19 16.6 19 29.2l0 64 112 0c97.2 0 176 78.8 176 176c0 113.3-81.5 163.9-100.2 174.1c-2.5 1.4-5.3 1.9-8.1 1.9c-10.9 0-19.7-8.9-19.7-19.7c0-7.5 4.3-14.4 9.8-19.5c9.4-8.8 22.2-26.4 22.2-56.7c0-53-43-96-96-96l-96 0 0 64c0 12.6-7.4 24.1-19 29.2s-25 3-34.4-5.4l-160-144C3.9 225.7 0 217.1 0 208s3.9-17.7 10.6-23.8l160-144c9.4-8.5 22.9-10.6 34.4-5.4z"/>
    </symbol>

    <!-- Heart Icon -->
    <symbol id="icon-heart" viewBox="0 0 512 512">
        <path d="M47.6 300.4L228.3 469.1c7.5 7 17.4 10.9 27.7 10.9s20.2-3.9 27.7-10.9L464.4 300.4c30.4-28.3 47.6-68 47.6-109.5v-5.8c0-69.9-50.5-129.5-119.4-141C347 36.5 300.6 51.4 268 84L256 96 244 84c-32.6-32.6-79-47.5-124.6-39.9C50.5 55.6 0 115.2 0 185.1v5.8c0 41.5 17.2 81.2 47.6 109.5z"/>
    </symbol>

    <!-- Quote Right Icon -->
    <symbol id="icon-quote-right" viewBox="0 0 448 512">
        <path d="M448 296c0 66.3-53.7 120-120 120l-8 0c-17.7 0-32-14.3-32-32s14.3-32 32-32l8 0c30.9 0 56-25.1 56-56l0-8-64 0c-35.3 0-64-28.7-64-64l0-64c0-35.3 28.7-64 64-64l64 0c35.3 0 64 28.7 64 64l0 32 0 32 0 72zm-256 0c0 66.3-53.7 120-120 120l-8 0c-17.7 0-32-14.3-32-32s14.3-32 32-32l8 0c30.9 0 56-25.1 56-56l0-8-64 0c-35.3 0-64-28.7-64-64l0-64c0-35.3 28.7-64 64-64l64 0c35.3 0 64 28.7 64 64l0 32 0 32 0 72z"/>
    </symbol>

    <!-- Retweet Icon -->
    <symbol id="icon-retweet" viewBox="0 0 512 512">
        <path d="M272 416c17.7 0 32-14.3 32-32s-14.3-32-32-32l-112 0c-17.7 0-32-14.3-32-32l0-128 32 0c12.9 0 24.6-7.8 29.6-19.8s2.2-25.7-6.9-34.9l-64-64c-12.5-12.5-32.8-12.5-45.3 0l-64 64c-9.2 9.2-11.9 22.9-6.9 34.9s16.6 19.8 29.6 19.8l32 0 0 128c0 53 43 96 96 96l112 0zM304 96c-17.7 0-32 14.3-32 32s14.3 32 32 32l112 0c17.7 0 32 14.3 32 32l0 128-32 0c-12.9 0-24.6 7.8-29.6 19.8s-2.2 25.7 6.9 34.9l64 64c12.5 12.5 32.8 12.5 45.3 0l64-64c9.2-9.2 11.9-22.9 6.9-34.9s-16.6-19.8-29.6-19.8l-32 0 0-128c0-53-43-96-96-96L304 96z"/>
    </symbol>
</svg>
